<mxfile host="app.diagrams.net" modified="2021-03-05T10:24:52.569Z" agent="5.0 (Macintosh; Intel Mac OS X 10_14_6) AppleWebKit/605.1.15 (KHTML, like Gecko) Version/13.1 Safari/605.1.15" etag="m0Gqn-noHtuzKSb4E6bm" version="14.4.3" type="github">
  <diagram name="Page-1" id="1622d65d-c77d-c4b6-e0e7-3c11208c8684">
    <mxGraphModel dx="1310" dy="937" grid="1" gridSize="10" guides="1" tooltips="1" connect="1" arrows="1" fold="1" page="1" pageScale="1.5" pageWidth="1169" pageHeight="826" background="#ffffff" math="0" shadow="0">
      <root>
        <mxCell id="0" style=";html=1;" />
        <mxCell id="1" style=";html=1;" parent="0" />
        <mxCell id="869962fe87da545-3" value="" style="whiteSpace=wrap;html=1;rounded=0;shadow=0;dashed=0;strokeWidth=1;fontFamily=Tahoma;fontSize=10;fontColor=#FFFFFF;strokeColor=none;fillColor=#7FB61A;gradientColor=#1B622A;gradientDirection=west;" parent="1" vertex="1">
          <mxGeometry x="1360" y="210" width="240" height="180" as="geometry" />
        </mxCell>
        <mxCell id="869962fe87da545-4" value="" style="verticalLabelPosition=bottom;verticalAlign=top;html=1;strokeWidth=1;shape=mxgraph.basic.orthogonal_triangle;rounded=0;shadow=0;dashed=0;fontFamily=Tahoma;fontSize=10;fontColor=#FFFFFF;flipV=1;fillColor=#000000;strokeColor=none;opacity=50;" parent="1" vertex="1">
          <mxGeometry x="1360" y="350" width="140" height="40" as="geometry" />
        </mxCell>
        <mxCell id="869962fe87da545-6" value="" style="whiteSpace=wrap;html=1;rounded=0;shadow=0;dashed=0;strokeWidth=1;fontFamily=Tahoma;fontSize=10;fontColor=#FFFFFF;strokeColor=none;fillColor=#5398DB;gradientColor=#1247B9;gradientDirection=west;" parent="1" vertex="1">
          <mxGeometry x="1370" y="470" width="240" height="180" as="geometry" />
        </mxCell>
        <mxCell id="869962fe87da545-7" value="" style="verticalLabelPosition=bottom;verticalAlign=top;html=1;strokeWidth=1;shape=mxgraph.basic.orthogonal_triangle;rounded=0;shadow=0;dashed=0;fontFamily=Tahoma;fontSize=10;fontColor=#FFFFFF;flipV=1;fillColor=#000000;strokeColor=none;opacity=50;" parent="1" vertex="1">
          <mxGeometry x="1370" y="610" width="140" height="40" as="geometry" />
        </mxCell>
        <mxCell id="869962fe87da545-9" value="" style="whiteSpace=wrap;html=1;rounded=0;shadow=0;dashed=0;strokeWidth=1;fontFamily=Tahoma;fontSize=10;fontColor=#FFFFFF;strokeColor=none;fillColor=#8D029D;gradientColor=#65009E;gradientDirection=west;" parent="1" vertex="1">
          <mxGeometry x="1370" y="720" width="240" height="180" as="geometry" />
        </mxCell>
        <mxCell id="869962fe87da545-10" value="" style="verticalLabelPosition=bottom;verticalAlign=top;html=1;strokeWidth=1;shape=mxgraph.basic.orthogonal_triangle;rounded=0;shadow=0;dashed=0;fontFamily=Tahoma;fontSize=10;fontColor=#FFFFFF;flipV=1;fillColor=#000000;strokeColor=none;opacity=50;" parent="1" vertex="1">
          <mxGeometry x="1370" y="860" width="140" height="40" as="geometry" />
        </mxCell>
        <mxCell id="869962fe87da545-12" value="" style="whiteSpace=wrap;html=1;rounded=0;shadow=0;dashed=0;strokeWidth=1;fontFamily=Tahoma;fontSize=10;fontColor=#FFFFFF;strokeColor=none;fillColor=#F19001;gradientColor=#C23603;gradientDirection=west;" parent="1" vertex="1">
          <mxGeometry x="1370" y="970" width="240" height="180" as="geometry" />
        </mxCell>
        <mxCell id="869962fe87da545-13" value="" style="verticalLabelPosition=bottom;verticalAlign=top;html=1;strokeWidth=1;shape=mxgraph.basic.orthogonal_triangle;rounded=0;shadow=0;dashed=0;fontFamily=Tahoma;fontSize=10;fontColor=#FFFFFF;flipV=1;fillColor=#000000;strokeColor=none;opacity=50;" parent="1" vertex="1">
          <mxGeometry x="1370" y="1110" width="140" height="40" as="geometry" />
        </mxCell>
        <mxCell id="869962fe87da545-15" value="" style="whiteSpace=wrap;html=1;rounded=0;shadow=0;dashed=0;strokeWidth=1;fontFamily=Tahoma;fontSize=10;fontColor=#FFFFFF;strokeColor=none;fillColor=#EA0001;gradientColor=#AD0002;gradientDirection=west;" parent="1" vertex="1">
          <mxGeometry x="1370" y="1220" width="240" height="180" as="geometry" />
        </mxCell>
        <mxCell id="869962fe87da545-16" value="" style="verticalLabelPosition=bottom;verticalAlign=top;html=1;strokeWidth=1;shape=mxgraph.basic.orthogonal_triangle;rounded=0;shadow=0;dashed=0;fontFamily=Tahoma;fontSize=10;fontColor=#FFFFFF;flipV=1;fillColor=#000000;strokeColor=none;opacity=50;" parent="1" vertex="1">
          <mxGeometry x="1370" y="1360" width="140" height="40" as="geometry" />
        </mxCell>
        <mxCell id="869962fe87da545-5" value="VRIO ANALYSIS" style="whiteSpace=wrap;html=1;rounded=0;shadow=0;dashed=0;strokeWidth=1;fillColor=#E6E6E6;fontFamily=Verdana;fontSize=70;strokeColor=none;verticalAlign=top;spacingTop=10;" parent="1" vertex="1">
          <mxGeometry x="76" y="20" width="1360" height="1410" as="geometry" />
        </mxCell>
        <mxCell id="869962fe87da545-2" value="" style="html=1;shadow=0;dashed=0;align=center;verticalAlign=middle;shape=mxgraph.arrows2.arrow;dy=0;dx=0;notch=30;rounded=0;strokeColor=none;strokeWidth=1;fillColor=#7FB61A;fontFamily=Tahoma;fontSize=10;fontColor=#FFFFFF;gradientColor=#1B622A;gradientDirection=east;" parent="1" vertex="1">
          <mxGeometry x="290" y="170" width="1210" height="180" as="geometry" />
        </mxCell>
        <mxCell id="869962fe87da545-8" value="" style="html=1;shadow=0;dashed=0;align=center;verticalAlign=middle;shape=mxgraph.arrows2.arrow;dy=0;dx=0;notch=30;rounded=0;strokeColor=none;strokeWidth=1;fillColor=#5398DB;fontFamily=Tahoma;fontSize=10;fontColor=#FFFFFF;gradientColor=#1247B9;gradientDirection=east;" parent="1" vertex="1">
          <mxGeometry x="300" y="430" width="1210" height="180" as="geometry" />
        </mxCell>
        <mxCell id="869962fe87da545-11" value="" style="html=1;shadow=0;dashed=0;align=center;verticalAlign=middle;shape=mxgraph.arrows2.arrow;dy=0;dx=0;notch=30;rounded=0;strokeColor=none;strokeWidth=1;fillColor=#8D029D;fontFamily=Tahoma;fontSize=10;fontColor=#FFFFFF;gradientColor=#65009E;gradientDirection=east;" parent="1" vertex="1">
          <mxGeometry x="300" y="680" width="1210" height="180" as="geometry" />
        </mxCell>
        <mxCell id="869962fe87da545-14" value="" style="html=1;shadow=0;dashed=0;align=center;verticalAlign=middle;shape=mxgraph.arrows2.arrow;dy=0;dx=0;notch=30;rounded=0;strokeColor=none;strokeWidth=1;fillColor=#F19001;fontFamily=Tahoma;fontSize=10;fontColor=#FFFFFF;gradientColor=#C23603;gradientDirection=east;" parent="1" vertex="1">
          <mxGeometry x="300" y="930" width="1210" height="180" as="geometry" />
        </mxCell>
        <mxCell id="869962fe87da545-18" value="Additional text" style="text;html=1;strokeColor=none;fillColor=none;align=center;verticalAlign=middle;whiteSpace=wrap;rounded=0;shadow=0;dashed=0;fontFamily=Verdana;fontSize=70;horizontal=0;" parent="1" vertex="1">
          <mxGeometry x="110" y="170" width="130" height="1190" as="geometry" />
        </mxCell>
        <mxCell id="869962fe87da545-19" value="V" style="text;html=1;strokeColor=none;fillColor=none;align=right;verticalAlign=middle;whiteSpace=wrap;rounded=0;shadow=0;dashed=0;fontFamily=Helvetica;fontSize=150;fontColor=#FFFFFF;" parent="1" vertex="1">
          <mxGeometry x="320" y="170" width="200" height="180" as="geometry" />
        </mxCell>
        <mxCell id="869962fe87da545-20" value="R" style="text;html=1;strokeColor=none;fillColor=none;align=right;verticalAlign=middle;whiteSpace=wrap;rounded=0;shadow=0;dashed=0;fontFamily=Helvetica;fontSize=150;fontColor=#FFFFFF;" parent="1" vertex="1">
          <mxGeometry x="330" y="430" width="200" height="180" as="geometry" />
        </mxCell>
        <mxCell id="869962fe87da545-21" value="I" style="text;html=1;strokeColor=none;fillColor=none;align=right;verticalAlign=middle;whiteSpace=wrap;rounded=0;shadow=0;dashed=0;fontFamily=Helvetica;fontSize=150;fontColor=#FFFFFF;" parent="1" vertex="1">
          <mxGeometry x="330" y="680" width="200" height="180" as="geometry" />
        </mxCell>
        <mxCell id="869962fe87da545-22" value="O" style="text;html=1;strokeColor=none;fillColor=none;align=right;verticalAlign=middle;whiteSpace=wrap;rounded=0;shadow=0;dashed=0;fontFamily=Helvetica;fontSize=150;fontColor=#FFFFFF;" parent="1" vertex="1">
          <mxGeometry x="330" y="930" width="200" height="180" as="geometry" />
        </mxCell>
        <mxCell id="869962fe87da545-24" value="" style="line;strokeWidth=4;direction=south;html=1;rounded=0;shadow=0;dashed=0;fillColor=none;gradientColor=#AD0002;fontFamily=Helvetica;fontSize=150;fontColor=#FFFFFF;align=right;strokeColor=#FFFFFF;" parent="1" vertex="1">
          <mxGeometry x="540" y="180" width="10" height="160" as="geometry" />
        </mxCell>
        <mxCell id="869962fe87da545-25" value="" style="line;strokeWidth=4;direction=south;html=1;rounded=0;shadow=0;dashed=0;fillColor=none;gradientColor=#AD0002;fontFamily=Helvetica;fontSize=150;fontColor=#FFFFFF;align=right;strokeColor=#FFFFFF;" parent="1" vertex="1">
          <mxGeometry x="540" y="440" width="10" height="160" as="geometry" />
        </mxCell>
        <mxCell id="869962fe87da545-26" value="" style="line;strokeWidth=4;direction=south;html=1;rounded=0;shadow=0;dashed=0;fillColor=none;gradientColor=#AD0002;fontFamily=Helvetica;fontSize=150;fontColor=#FFFFFF;align=right;strokeColor=#FFFFFF;" parent="1" vertex="1">
          <mxGeometry x="540" y="690" width="10" height="160" as="geometry" />
        </mxCell>
        <mxCell id="869962fe87da545-27" value="" style="line;strokeWidth=4;direction=south;html=1;rounded=0;shadow=0;dashed=0;fillColor=none;gradientColor=#AD0002;fontFamily=Helvetica;fontSize=150;fontColor=#FFFFFF;align=right;strokeColor=#FFFFFF;" parent="1" vertex="1">
          <mxGeometry x="540" y="940" width="10" height="160" as="geometry" />
        </mxCell>
        <mxCell id="869962fe87da545-29" value="&lt;p class=&quot;MsoNormal&quot; style=&quot;margin: 0cm ; font-family: &amp;#34;calibri&amp;#34; , sans-serif ; font-style: normal ; font-weight: normal ; letter-spacing: normal ; text-indent: 0px ; text-transform: none ; word-spacing: 0px ; text-decoration: none&quot;&gt;&lt;span lang=&quot;EN-US&quot; style=&quot;font-family: &amp;#34;times new roman&amp;#34; , serif&quot;&gt;&lt;font style=&quot;font-size: 19px&quot;&gt;By creating a fintech mobile App, Lendonomy increase the efficiency and makes it easier for young’s to lend out or borrow micro amounts. Lendonomy create customer values by rewarding good players in innovative ways trough their unique incentive scheme.&lt;/font&gt;&lt;/span&gt;&lt;/p&gt;" style="text;html=1;strokeColor=none;fillColor=none;spacing=5;spacingTop=-20;whiteSpace=wrap;overflow=hidden;rounded=0;shadow=0;dashed=0;fontFamily=Helvetica;fontSize=12;fontColor=#FFFFFF;align=left;" parent="1" vertex="1">
          <mxGeometry x="570" y="240" width="670" height="90" as="geometry" />
        </mxCell>
        <mxCell id="869962fe87da545-30" value="&lt;p class=&quot;MsoNormal&quot; style=&quot;margin: 0cm ; font-family: &amp;#34;calibri&amp;#34; , sans-serif ; font-style: normal ; font-weight: normal ; letter-spacing: normal ; text-indent: 0px ; text-transform: none ; word-spacing: 0px ; text-decoration: none&quot;&gt;&lt;span lang=&quot;EN-US&quot; style=&quot;font-family: &amp;#34;times new roman&amp;#34; , serif&quot;&gt;&lt;font style=&quot;font-size: 19px&quot;&gt;Lendonomy have created a fintech mobile app for micro amounts which is rare and gives them a competitive advantage. What sets Lendonomy apart from other competitors is their efficiency and simplicity – You can instantly borrow from another user without any credit check&lt;/font&gt;&lt;/span&gt;&lt;/p&gt;" style="text;html=1;strokeColor=none;fillColor=none;spacing=5;spacingTop=-20;whiteSpace=wrap;overflow=hidden;rounded=0;shadow=0;dashed=0;fontFamily=Helvetica;fontSize=12;fontColor=#FFFFFF;align=left;" parent="1" vertex="1">
          <mxGeometry x="580" y="510" width="670" height="80" as="geometry" />
        </mxCell>
        <mxCell id="869962fe87da545-31" value="&lt;h1&gt;&lt;p class=&quot;MsoNormal&quot; style=&quot;margin: 0cm ; font-family: &amp;#34;calibri&amp;#34; , sans-serif ; font-weight: normal&quot;&gt;&lt;span lang=&quot;EN-US&quot; style=&quot;font-family: &amp;#34;times new roman&amp;#34; , serif&quot;&gt;&lt;font style=&quot;font-size: 18px&quot;&gt;Lendonomy has achieved inimitability trough their innovative business model where they use blockchain for smart contracts and for building a verifiable credit history for their users. Blockchain technology tracks Lendonomy’s Trust Score which then has an effect on a given individual’s credit score with the person’s bank. As well as their advantage of instantly borrowing/lending is very inimitable.&amp;nbsp;&lt;/font&gt;&lt;font size=&quot;3&quot; style=&quot;color: rgb(0 , 0 , 0)&quot;&gt;&lt;/font&gt;&lt;/span&gt;&lt;/p&gt;&lt;/h1&gt;" style="text;html=1;strokeColor=none;fillColor=none;spacing=5;spacingTop=-20;whiteSpace=wrap;overflow=hidden;rounded=0;shadow=0;dashed=0;fontFamily=Helvetica;fontSize=12;fontColor=#FFFFFF;align=left;" parent="1" vertex="1">
          <mxGeometry x="580" y="730" width="770" height="140" as="geometry" />
        </mxCell>
        <mxCell id="869962fe87da545-32" value="&lt;h1&gt;&lt;p class=&quot;MsoNormal&quot; style=&quot;margin: 0cm ; font-family: &amp;#34;calibri&amp;#34; , sans-serif ; font-weight: normal&quot;&gt;&lt;span lang=&quot;EN-US&quot; style=&quot;font-family: &amp;#34;times new roman&amp;#34; , serif&quot;&gt;&lt;font style=&quot;font-size: 19px&quot;&gt;Lendonomy is taking advantage of their capability. By focusing on fighting invisible poverty, they help young people to borrow and lend out micro amounts easily. In addition, they want users to build a verifiable credit history, so they build their platform on blockchain.&amp;nbsp;&lt;/font&gt;&lt;font size=&quot;3&quot; style=&quot;color: rgb(0 , 0 , 0)&quot;&gt;&lt;/font&gt;&lt;/span&gt;&lt;/p&gt;&lt;/h1&gt;" style="text;html=1;strokeColor=none;fillColor=none;spacing=5;spacingTop=-20;whiteSpace=wrap;overflow=hidden;rounded=0;shadow=0;dashed=0;fontFamily=Helvetica;fontSize=12;fontColor=#FFFFFF;align=left;" parent="1" vertex="1">
          <mxGeometry x="580" y="980" width="670" height="160" as="geometry" />
        </mxCell>
        <mxCell id="869962fe87da545-38" value="" style="shadow=0;dashed=0;html=1;strokeColor=none;fillColor=#FFFFFF;labelPosition=center;verticalLabelPosition=bottom;verticalAlign=top;shape=mxgraph.office.concepts.on_premises;rounded=0;fontFamily=Helvetica;fontSize=12;fontColor=#FFFFFF;align=left;" parent="1" vertex="1">
          <mxGeometry x="1381" y="1220" width="59" height="95" as="geometry" />
        </mxCell>
        <mxCell id="blOIniI5uY6dBvGE-Ohz-1" value="&lt;h1&gt;&lt;font face=&quot;Times New Roman&quot; style=&quot;font-size: 24px&quot;&gt;VALUES&lt;/font&gt;&lt;/h1&gt;" style="text;html=1;align=center;verticalAlign=middle;whiteSpace=wrap;rounded=0;fontSize=19;fontStyle=1;fontColor=#FFFFFF;" vertex="1" parent="1">
          <mxGeometry x="600" y="190" width="40" height="20" as="geometry" />
        </mxCell>
        <mxCell id="blOIniI5uY6dBvGE-Ohz-4" value="&lt;h1 style=&quot;font-size: 24px&quot;&gt;&lt;font face=&quot;Times New Roman&quot;&gt;RARITY&lt;/font&gt;&lt;/h1&gt;" style="text;html=1;strokeColor=none;fillColor=none;align=center;verticalAlign=middle;whiteSpace=wrap;rounded=0;fontSize=19;fontColor=#FFFFFF;" vertex="1" parent="1">
          <mxGeometry x="610" y="467" width="40" height="20" as="geometry" />
        </mxCell>
        <mxCell id="blOIniI5uY6dBvGE-Ohz-5" value="&lt;h1&gt;&lt;font face=&quot;Times New Roman&quot; style=&quot;font-size: 24px&quot;&gt;INIMITABILITY&lt;/font&gt;&lt;/h1&gt;" style="text;html=1;strokeColor=none;fillColor=none;align=center;verticalAlign=middle;whiteSpace=wrap;rounded=0;fontSize=19;fontColor=#FFFFFF;" vertex="1" parent="1">
          <mxGeometry x="660" y="700" width="40" height="20" as="geometry" />
        </mxCell>
        <mxCell id="blOIniI5uY6dBvGE-Ohz-7" value="&lt;h1&gt;&lt;font face=&quot;Times New Roman&quot; style=&quot;font-size: 24px&quot;&gt;ORGANIZATIONALSUPPORT&lt;/font&gt;&lt;/h1&gt;" style="text;html=1;strokeColor=none;fillColor=none;align=center;verticalAlign=middle;whiteSpace=wrap;rounded=0;fontSize=19;fontColor=#FFFFFF;" vertex="1" parent="1">
          <mxGeometry x="730" y="950" width="40" height="20" as="geometry" />
        </mxCell>
      </root>
    </mxGraphModel>
  </diagram>
</mxfile>
